<svg xmlns="http://www.w3.org/2000/svg" width="256" height="256" data-name="Layer 1" viewBox="0 0 256 256"><g data-name="Photo Surface"><rect width="240" height="232" x="8" y="12" fill="#470137" data-name="Outline no shadow" rx="42"/></g><path fill="#ff61f6" d="M131.37 77.64l-29.52 50.72 31.81 54c.65 1.1.37 1.64-.82 1.64H113a2.46 2.46 0 01-2.44-1.31L88.17 141.62H88L66.2 182.69A2.41 2.41 0 0164.08 184H45c-1.09 0-1.3-.54-.65-1.64l31.28-52.52L45.83 77.31c-.65-.87-.43-1.31.65-1.31H66.36a2.24 2.24 0 012.12 1.15l21 40.58h.16l20.89-40.58A2.24 2.24 0 01112.64 76h18.08C131.92 76 132.13 76.55 131.37 77.64zM179.87 186c-11.6 0-20.53-3.29-27.46-9.86S142 159.86 142 147q0-17.53 11.18-28.8A40 40 0 01182.66 106a29.62 29.62 0 017.3.78V72.94a.83.83 0 01.93-.94h18.28c.51 0 .77.31.77.94v94.75c0 4 1.73 7.41 2 10.33a1.26 1.26 0 01-.78 1.41C202.19 183.81 190.43 186 179.87 186zM190 170.51V122.14c-.65-1.14-4.09-2.14-7.61-2.14A19.58 19.58 0 00167 126.85a29.24 29.24 0 00-7 19.4c0 8.76 3 14.76 6.91 18.93A19.9 19.9 0 00181.73 172C185.46 172 189.11 171.44 190 170.51z"/></svg>