<svg id="_x33_0" enable-background="new 0 0 64 64" height="512" viewBox="0 0 64 64" width="512" xmlns="http://www.w3.org/2000/svg"><g><path d="m49 48c1.654 0 3-1.346 3-3s-1.346-3-3-3-3 1.346-3 3 1.346 3 3 3zm0-4c.551 0 1 .448 1 1s-.449 1-1 1-1-.448-1-1 .449-1 1-1z"/><path d="m59.16 40.778c-.303-.726-.142-1.551.409-2.103l1.455-1.456-4.244-4.244-1.457 1.456c-.551.552-1.377.712-2.141.392-.718-.296-1.182-.99-1.182-1.768v-2.055h-2.051c-.091-1.613-.39-3.172-.886-4.649l11.572-11.572c1.525-1.525 2.365-3.552 2.365-5.708 0-4.45-3.621-8.071-8.071-8.071-2.156 0-4.183.84-5.707 2.364l-11.56 11.561c-1.495-.502-3.08-.794-4.717-.881-1.38-2.411-3.973-4.044-6.945-4.044-.761 0-1.495.114-2.194.313-1.726-3.245-5.079-5.313-8.806-5.313-5.514 0-10 4.486-10 10 0 .766.094 1.52.265 2.258-2.465.746-4.265 3.037-4.265 5.742 0 3.309 2.691 6 6 6h7.254c-.166.989-.254 1.993-.254 3 0 2.201.407 3.992 1.064 5.522l-8.921 8.922-4.964 12.906c-.119.308-.179.632-.179.963 0 1.482 1.206 2.687 2.687 2.687.331 0 .655-.061.964-.179l12.906-4.964 6.523-6.524c-.049.215-.08.437-.08.667 0 .771.301 1.468.78 2-.48.532-.78 1.229-.78 2 0 1.39.955 2.552 2.24 2.89.852 2.44 3.134 4.11 5.76 4.11s4.908-1.67 5.76-4.11c1.285-.338 2.24-1.5 2.24-2.89 0-.075-.017-.145-.022-.218l1.242 1.242 1.457-1.456c.551-.552 1.374-.713 2.14-.394.718.299 1.183.993 1.183 1.771v2.055h6v-2.055c0-.778.465-1.473 1.222-1.786.726-.302 1.551-.143 2.102.409l1.456 1.456 4.244-4.244-1.455-1.456c-.551-.552-.712-1.377-.393-2.141.297-.718.991-1.183 1.769-1.183h2.055v-6h-2.055c-.778 0-1.472-.465-1.785-1.222zm-14.984 2.948c1.091-1.065 2.184-2.153 3.127-3.411.544-.198 1.11-.315 1.697-.315 2.757 0 5 2.243 5 5s-2.243 5-5 5-5-2.243-5-5c0-.433.067-.859.176-1.274zm1.201-23.688 4.623-4.624 3.586 3.586-5.341 5.341c-.749-1.572-1.717-3.018-2.868-4.303zm1.037-11.038 1.586-1.586 8.586 8.586-1.586 1.586zm8.515-6c3.347 0 6.071 2.724 6.071 6.071 0 1.621-.631 3.146-1.778 4.293l-1.222 1.222-8.586-8.586 1.222-1.222c1.147-1.146 2.671-1.778 4.293-1.778zm-9.929 7.414 3.586 3.586-4.621 4.621c-1.284-1.152-2.729-2.121-4.301-2.871zm3 21.586c0 5.203-2.62 7.759-5.394 10.464-1.91 1.863-3.872 3.789-5.014 6.596-.191-.039-.389-.06-.592-.06h-4v-5c0-1.654-1.346-3-3-3h-2c-.551 0-1-.448-1-1s.449-1 1-1h10c1.654 0 3-1.346 3-3s-1.346-3-3-3h-8c-.551 0-1-.448-1-1v-3h5c2.757 0 5-2.243 5-5s-2.243-5-5-5c-.028 0-.054.008-.082.008.043-.334.082-.668.082-1.008 0-.654-.088-1.287-.236-1.896 7.972.888 14.236 7.73 14.236 15.896zm-22 20c0-.552.449-1 1-1h10c.551 0 1 .448 1 1s-.449 1-1 1h-10c-.551 0-1-.448-1-1zm-12.586 0 7.351-7.351c1.23 1.22 2.372 2.454 3.214 3.957l-6.979 6.98zm-10.414-29c0-2.206 1.794-4 4-4s4 1.794 4 4h2c0-3.222-2.555-5.852-5.744-5.987-.17-.654-.256-1.329-.256-2.013 0-4.411 3.589-8 8-8 2.925 0 5.565 1.59 6.969 4.101-2.132 1.251-3.638 3.454-3.919 6.025-1.746.43-3.05 1.997-3.05 3.874h2c0-1.103.897-2 2-2s2 .897 2 2h2c0-1.835-1.248-3.368-2.935-3.838.41-2.912 2.911-5.162 5.935-5.162 3.309 0 6 2.691 6 6 0 .526-.086 1.041-.22 1.543-1.64.821-2.78 2.501-2.78 4.457h2c0-1.654 1.346-3 3-3s3 1.346 3 3-1.346 3-3 3h-27c-2.206 0-4-1.794-4-4zm24 6v3c0 1.654 1.346 3 3 3h8c.551 0 1 .448 1 1s-.449 1-1 1h-10c-1.654 0-3 1.346-3 3s1.346 3 3 3h2c.551 0 1 .448 1 1v5h-4c-.203 0-.401.021-.592.06-1.142-2.807-3.104-4.733-5.014-6.596-2.774-2.705-5.394-5.261-5.394-10.464 0-1.011.121-2.013.308-3zm-7.663 14.249-7.337 7.337-3.586-3.586 7.63-7.63c.939 1.474 2.103 2.704 3.293 3.879zm-11.956 5.546 7.824 7.824-6.624 2.548-3.748-3.748zm-3.447 12.159c-.433.168-.934-.177-.934-.641 0-.085.016-.168.045-.246l1.002-2.606 2.491 2.491zm28.066.046c-1.477 0-2.794-.786-3.524-2h7.048c-.73 1.214-2.047 2-3.524 2zm5-4h-10c-.551 0-1-.448-1-1s.449-1 1-1h10c.551 0 1 .448 1 1s-.449 1-1 1zm24-11h-.055c-1.591 0-3.011.95-3.631 2.452-.616 1.477-.286 3.159.84 4.286l.042.042-1.416 1.416-.042-.042c-1.128-1.128-2.812-1.459-4.319-.827-1.469.608-2.419 2.027-2.419 3.618v.055h-2v-.055c0-1.591-.95-3.011-2.452-3.632-1.479-.617-3.161-.286-4.287.841l-.042.042-1.355-1.355c.08-.269.136-.547.136-.841 0-.71-.258-1.354-.672-1.869.622-1.679 1.597-3.022 2.732-4.262.43 3.45 3.375 6.131 6.94 6.131 3.86 0 7-3.141 7-7s-3.14-7-7-7c-.098 0-.193.01-.29.014.677-1.405 1.142-3.034 1.259-5.014h.031v.055c0 1.591.95 3.012 2.451 3.631 1.476.618 3.16.288 4.287-.84l.042-.042 1.416 1.416-.042.042c-1.126 1.127-1.456 2.81-.827 4.318.607 1.47 2.027 2.42 3.618 2.42h.055z"/></g></svg>