<svg xmlns="http://www.w3.org/2000/svg" viewBox="0 0 16 16"><circle cx="8" cy="7.946" r="7.5" fill="#EC407A"/><path fill="#C2185B" d="M8 0C3.589 0 0 3.589 0 8s3.589 8 8 8 8-3.589 8-8-3.589-8-8-8zm6.997 8.06a11.121 11.121 0 0 0-5.086-.158 28.054 28.054 0 0 0-.732-1.667 15.09 15.09 0 0 0 4.095-2.822A6.96 6.96 0 0 1 15 8c0 .02-.003.039-.003.06zm-2.43-5.353a14.07 14.07 0 0 1-3.822 2.639 28.107 28.107 0 0 0-2.61-4.086A6.96 6.96 0 0 1 8 1a6.96 6.96 0 0 1 4.567 1.707zm-7.42-1.093a27.08 27.08 0 0 1 2.665 4.109 14.08 14.08 0 0 1-6.663.843 7.02 7.02 0 0 1 3.998-4.952zM1 8c0-.15.013-.297.023-.444.592.07 1.184.116 1.774.116 1.882 0 3.731-.368 5.464-1.043.24.5.466 1.007.675 1.521a11.209 11.209 0 0 0-6.122 4.535A6.966 6.966 0 0 1 1 8zm2.545 5.395A10.205 10.205 0 0 1 9.296 9.08a27.04 27.04 0 0 1 1.352 5.396 6.967 6.967 0 0 1-7.103-1.081zm8.041.605a28.095 28.095 0 0 0-1.308-5.152 10.132 10.132 0 0 1 4.632.218A7.004 7.004 0 0 1 11.586 14z"/></svg>