<?xml version="1.0" encoding="iso-8859-1"?>
<!-- Generator: Adobe Illustrator 19.0.0, SVG Export Plug-In . SVG Version: 6.00 Build 0)  -->
<svg version="1.1" id="Capa_1" xmlns="http://www.w3.org/2000/svg" xmlns:xlink="http://www.w3.org/1999/xlink" x="0px" y="0px"
	 viewBox="0 0 512 512" style="enable-background:new 0 0 512 512;" xml:space="preserve">
<g>
	<g>
		<path d="M497,0h-61c-8.291,0-15,6.709-15,15v15H298.237C292.024,12.578,275.53,0,256,0c-19.53,0-36.024,12.578-42.237,30H91V15
			c0-8.291-6.709-15-15-15H15C6.709,0,0,6.709,0,15v60c0,8.291,6.709,15,15,15h61c8.291,0,15-6.709,15-15V59.8h61.604
			c-52.057,32.521-86.382,89.64-90.485,153.615C44.121,219.306,31,236.06,31,256c0,24.814,20.186,45,45,45s45-20.186,45-45
			c0-19.14-12.061-35.413-28.94-41.907C97.178,142.768,146.946,82.652,216.173,65.5C223.66,79.977,238.607,90,256,90
			s32.34-10.023,39.827-24.5c69.227,17.151,118.995,77.267,124.113,148.592C403.061,220.587,391,236.86,391,256
			c0,24.814,20.186,45,45,45c24.814,0,45-20.186,45-45c0-19.94-13.121-36.694-31.119-42.585
			C445.778,149.44,411.453,92.521,359.396,60H421v15c0,8.291,6.709,15,15,15h61c8.291,0,15-6.709,15-15V15
			C512,6.709,505.291,0,497,0z"/>
	</g>
</g>
<g>
	<g>
		<path d="M358.05,493.395C350.204,469.386,327.6,451,301,451h-90c-26.6,0-49.204,18.386-57.05,42.395
			C150.925,502.652,158.8,512,168.54,512h174.92C353.199,512,361.075,502.652,358.05,493.395z"/>
	</g>
</g>
<g>
	<g>
		<path d="M388.48,307.68L271,131.459v142.304c17.422,6.213,30,22.707,30,42.237c0,24.814-20.186,45-45,45
			c-24.814,0-45-20.186-45-45c0-19.53,12.578-36.024,30-42.237V131.459L123.52,307.68c-3.97,5.947-3.179,13.872,1.875,18.926
			c27.537,27.537,45.139,63.012,51.932,101.065C187.747,423.444,199.08,421,211,421h90c11.92,0,23.253,2.443,33.673,6.669
			c6.793-38.055,24.395-73.526,51.932-101.063C391.659,321.552,392.45,313.627,388.48,307.68z"/>
	</g>
</g>
<g>
	<g>
		<path d="M256,301c-8.276,0-15,6.724-15,15s6.724,15,15,15s15-6.724,15-15S264.276,301,256,301z"/>
	</g>
</g>
<g>
</g>
<g>
</g>
<g>
</g>
<g>
</g>
<g>
</g>
<g>
</g>
<g>
</g>
<g>
</g>
<g>
</g>
<g>
</g>
<g>
</g>
<g>
</g>
<g>
</g>
<g>
</g>
<g>
</g>
</svg>
